<svg xmlns="http://www.w3.org/2000/svg" width="598" height="874" viewBox="0 0 598 874" fill="none">
<rect x="276" y="644" width="46" height="46" fill="#34AC80"/>
<rect x="322" y="598" width="46" height="46" fill="#34AC80"/>
<rect x="276" y="552" width="46" height="46" fill="#34AC80"/>
<rect x="276" y="460" width="46" height="46" fill="#34AC80"/>
<rect x="276" y="506" width="46" height="46" fill="#4BEA69"/>
<rect x="230" y="552" width="46" height="46" fill="#4BEA69"/>
<rect x="230" y="506" width="46" height="46" fill="#4BEA69"/>
<rect x="230" y="460" width="46" height="46" fill="#4BEA69"/>
<rect x="322" y="552" width="46" height="46" fill="#4BEA69"/>
<rect x="322" y="506" width="46" height="46" fill="#4BEA69"/>
<rect x="322" y="460" width="46" height="46" fill="#4BEA69"/>
<rect x="276" y="368" width="46" height="46" fill="#34AC80"/>
<rect x="276" y="276" width="46" height="46" fill="#34AC80"/>
<rect x="276" y="322" width="46" height="46" fill="#4BEA69"/>
<rect x="230" y="368" width="46" height="46" fill="#4BEA69"/>
<rect x="230" y="322" width="46" height="46" fill="#4BEA69"/>
<rect x="230" y="276" width="46" height="46" fill="#4BEA69"/>
<rect x="322" y="368" width="46" height="46" fill="#4BEA69"/>
<rect x="322" y="322" width="46" height="46" fill="#4BEA69"/>
<rect x="322" y="276" width="46" height="46" fill="#4BEA69"/>
<rect x="230" y="598" width="46" height="46" fill="#34AC80"/>
<rect x="276" y="598" width="46" height="46" fill="#0B5027"/>
<rect x="276" y="828" width="46" height="46" fill="#34AC80"/>
<rect x="322" y="782" width="46" height="46" fill="#34AC80"/>
<rect x="276" y="736" width="46" height="46" fill="#34AC80"/>
<rect x="276" y="690" width="46" height="46" fill="#4BEA69"/>
<rect x="230" y="736" width="46" height="46" fill="#4BEA69"/>
<rect x="230" y="690" width="46" height="46" fill="#4BEA69"/>
<rect x="230" y="644" width="46" height="46" fill="#4BEA69"/>
<rect x="322" y="736" width="46" height="46" fill="#4BEA69"/>
<rect x="322" y="690" width="46" height="46" fill="#4BEA69"/>
<rect x="322" y="644" width="46" height="46" fill="#4BEA69"/>
<rect x="230" y="782" width="46" height="46" fill="#34AC80"/>
<rect x="276" y="782" width="46" height="46" fill="#0B5027"/>
<rect x="322" y="414" width="46" height="46" fill="#34AC80"/>
<rect x="230" y="414" width="46" height="46" fill="#34AC80"/>
<rect x="276" y="414" width="46" height="46" fill="#0B5027"/>
<rect x="276" y="184" width="46" height="46" fill="#34AC80"/>
<rect x="230" y="184" width="46" height="46" fill="#4BEA69"/>
<rect x="322" y="184" width="46" height="46" fill="#4BEA69"/>
<rect x="322" y="230" width="46" height="46" fill="#34AC80"/>
<rect x="230" y="230" width="46" height="46" fill="#34AC80"/>
<rect x="276" y="230" width="46" height="46" fill="#0B5027"/>
<rect x="276" y="92" width="46" height="46" fill="#34AC80"/>
<rect x="276" y="138" width="46" height="46" fill="#4BEA69"/>
<rect x="230" y="138" width="46" height="46" fill="#4BEA69"/>
<rect x="230" y="92" width="46" height="46" fill="#4BEA69"/>
<rect x="322" y="138" width="46" height="46" fill="#4BEA69"/>
<rect x="322" y="92" width="46" height="46" fill="#4BEA69"/>
<rect x="460" y="276" width="46" height="46" fill="#4BEA69"/>
<rect x="460" y="230" width="46" height="46" fill="#4BEA69"/>
<rect x="414" y="230" width="46" height="46" fill="#4BEA69"/>
<rect x="368" y="230" width="46" height="46" fill="#4BEA69"/>
<rect x="368" y="184" width="46" height="46" fill="#4BEA69"/>
<rect x="460" y="184" width="46" height="46" fill="#4BEA69"/>
<rect x="506" y="368" width="46" height="46" fill="#4BEA69"/>
<rect x="552" y="322" width="46" height="46" fill="#4BEA69"/>
<rect x="506" y="322" width="46" height="46" fill="#4BEA69"/>
<rect x="506" y="276" width="46" height="46" fill="#4BEA69"/>
<rect x="368" y="92" width="46" height="46" fill="#4BEA69"/>
<rect x="276" width="46" height="46" fill="#34AC80"/>
<rect x="322" y="46" width="46" height="46" fill="#34AC80"/>
<rect x="368" y="138" width="46" height="46" fill="#34AC80"/>
<rect x="414" y="184" width="46" height="46" fill="#34AC80"/>
<rect x="414" y="276" width="46" height="46" fill="#34AC80"/>
<rect x="506" y="230" width="46" height="46" fill="#34AC80"/>
<rect x="460" y="322" width="46" height="46" fill="#34AC80"/>
<rect x="552" y="276" width="46" height="46" fill="#34AC80"/>
<rect x="230" y="46" width="46" height="46" fill="#34AC80"/>
<rect x="276" y="46" width="46" height="46" fill="#0B5027"/>
<rect x="414" y="138" width="46" height="46" fill="#0B5027"/>
<rect width="46" height="46" transform="matrix(-1 0 0 1 138 276)" fill="#4BEA69"/>
<rect width="46" height="46" transform="matrix(-1 0 0 1 138 230)" fill="#4BEA69"/>
<rect width="46" height="46" transform="matrix(-1 0 0 1 184 230)" fill="#4BEA69"/>
<rect width="46" height="46" transform="matrix(-1 0 0 1 230 230)" fill="#4BEA69"/>
<rect width="46" height="46" transform="matrix(-1 0 0 1 230 184)" fill="#4BEA69"/>
<rect width="46" height="46" transform="matrix(-1 0 0 1 138 184)" fill="#4BEA69"/>
<rect width="46" height="46" transform="matrix(-1 0 0 1 92 368)" fill="#4BEA69"/>
<rect width="46" height="46" transform="matrix(-1 0 0 1 46 322)" fill="#4BEA69"/>
<rect width="46" height="46" transform="matrix(-1 0 0 1 92 322)" fill="#4BEA69"/>
<rect width="46" height="46" transform="matrix(-1 0 0 1 92 276)" fill="#4BEA69"/>
<rect width="46" height="46" transform="matrix(-1 0 0 1 230 92)" fill="#4BEA69"/>
<rect width="46" height="46" transform="matrix(-1 0 0 1 230 138)" fill="#34AC80"/>
<rect width="46" height="46" transform="matrix(-1 0 0 1 184 184)" fill="#34AC80"/>
<rect width="46" height="46" transform="matrix(-1 0 0 1 184 276)" fill="#34AC80"/>
<rect width="46" height="46" transform="matrix(-1 0 0 1 92 230)" fill="#34AC80"/>
<rect width="46" height="46" transform="matrix(-1 0 0 1 138 322)" fill="#34AC80"/>
<rect width="46" height="46" transform="matrix(-1 0 0 1 46 276)" fill="#34AC80"/>
<rect width="46" height="46" transform="matrix(-1 0 0 1 184 138)" fill="#0B5027"/>
</svg>
