<svg xmlns="http://www.w3.org/2000/svg" width="120" height="30" viewBox="0 0 120 30" fill="none">
  <!-- Main asteroid body -->
  <path d="M10 15 Q20 5 40 8 Q60 12 80 6 Q100 10 110 15 Q100 25 80 22 Q60 18 40 24 Q20 20 10 15 Z" fill="#4A4A4A"/>
  <!-- Asteroid surface details -->
  <circle cx="25" cy="12" r="3" fill="#2D2D2D"/>
  <circle cx="45" cy="10" r="2" fill="#2D2D2D"/>
  <circle cx="65" cy="8" r="4" fill="#2D2D2D"/>
  <circle cx="85" cy="12" r="2.5" fill="#2D2D2D"/>
  <circle cx="35" cy="18" r="2" fill="#2D2D2D"/>
  <circle cx="55" cy="20" r="3" fill="#2D2D2D"/>
  <circle cx="75" cy="18" r="2" fill="#2D2D2D"/>
  <!-- Highlight spots -->
  <circle cx="30" cy="8" r="1" fill="#6A6A6A"/>
  <circle cx="50" cy="6" r="1" fill="#6A6A6A"/>
  <circle cx="70" cy="4" r="1.5" fill="#6A6A6A"/>
  <circle cx="90" cy="8" r="1" fill="#6A6A6A"/>
</svg>
