<svg xmlns="http://www.w3.org/2000/svg" width="120" height="30" viewBox="0 0 120 30" fill="none">
  <!-- Main platform body -->
  <rect x="5" y="10" width="110" height="15" fill="#2D374B" rx="2"/>
  <!-- base hexagon pattern -->
  <rect x="10" y="12" width="20" height="6" fill="#4A90E2" rx="1"/>
  <rect x="35" y="12" width="20" height="6" fill="#4A90E2" rx="1"/>
  <rect x="60" y="12" width="20" height="6" fill="#4A90E2" rx="1"/>
  <rect x="85" y="12" width="20" height="6" fill="#4A90E2" rx="1"/>
  <!-- base logo bars on each section -->
  <rect x="15" y="13" width="1.5" height="4" fill="#FFFFFF"/>
  <rect x="18" y="13" width="1.5" height="4" fill="#FFFFFF"/>
  <rect x="21" y="13" width="1.5" height="4" fill="#4A90E2"/>
  
  <rect x="40" y="13" width="1.5" height="4" fill="#FFFFFF"/>
  <rect x="43" y="13" width="1.5" height="4" fill="#FFFFFF"/>
  <rect x="46" y="13" width="1.5" height="4" fill="#4A90E2"/>
  
  <rect x="65" y="13" width="1.5" height="4" fill="#FFFFFF"/>
  <rect x="68" y="13" width="1.5" height="4" fill="#FFFFFF"/>
  <rect x="71" y="13" width="1.5" height="4" fill="#4A90E2"/>
  
  <rect x="90" y="13" width="1.5" height="4" fill="#FFFFFF"/>
  <rect x="93" y="13" width="1.5" height="4" fill="#FFFFFF"/>
  <rect x="96" y="13" width="1.5" height="4" fill="#4A90E2"/>
  <!-- Control panels -->
  <rect x="8" y="8" width="4" height="2" fill="#4A90E2"/>
  <rect x="108" y="8" width="4" height="2" fill="#4A90E2"/>
  <!-- Antennas -->
  <line x1="10" y1="8" x2="10" y2="5" stroke="#4A90E2" stroke-width="1"/>
  <line x1="110" y1="8" x2="110" y2="5" stroke="#4A90E2" stroke-width="1"/>
  <circle cx="10" cy="5" r="1" fill="#4A90E2"/>
  <circle cx="110" cy="5" r="1" fill="#4A90E2"/>
</svg>
