<svg xmlns="http://www.w3.org/2000/svg" width="120" height="30" viewBox="0 0 120 30" fill="none">
  <!-- Crystal platform base -->
  <rect x="10" y="15" width="100" height="10" fill="#1A1A2E" rx="2"/>
  <!-- Crystal formations -->
  <path d="M20 15 L25 5 L30 15 Z" fill="#4A90E2"/>
  <path d="M35 15 L40 8 L45 15 Z" fill="#4A90E2"/>
  <path d="M50 15 L55 3 L60 15 Z" fill="#4A90E2"/>
  <path d="M65 15 L70 8 L75 15 Z" fill="#4A90E2"/>
  <path d="M80 15 L85 5 L90 15 Z" fill="#4A90E2"/>
  <path d="M95 15 L100 8 L105 15 Z" fill="#4A90E2"/>
  <!-- Crystal highlights -->
  <path d="M22 12 L24 7 L26 12 Z" fill="#6BB6FF"/>
  <path d="M37 12 L39 9 L41 12 Z" fill="#6BB6FF"/>
  <path d="M52 12 L54 6 L56 12 Z" fill="#6BB6FF"/>
  <path d="M67 12 L69 9 L71 12 Z" fill="#6BB6FF"/>
  <path d="M82 12 L84 7 L86 12 Z" fill="#6BB6FF"/>
  <path d="M97 12 L99 9 L101 12 Z" fill="#6BB6FF"/>
  <!-- Base glow -->
  <rect x="10" y="15" width="100" height="10" fill="url(#crystalGlow)" rx="2"/>
  <defs>
    <linearGradient id="crystalGlow" x1="0%" y1="0%" x2="0%" y2="100%">
      <stop offset="0%" style="stop-color:#4A90E2;stop-opacity:0.3" />
      <stop offset="100%" style="stop-color:#4A90E2;stop-opacity:0" />
    </linearGradient>
  </defs>
</svg>
