<svg xmlns="http://www.w3.org/2000/svg" width="60" height="120" viewBox="0 0 60 120" fill="none">
  <!-- Rocket body -->
  <rect x="20" y="10" width="20" height="80" fill="#34AC80" rx="2"/>
  <!-- Rocket nose -->
  <path d="M30 5 L40 15 L20 15 Z" fill="#4BEA69"/>
  <!-- Rocket fins -->
  <path d="M15 85 L20 90 L20 80 Z" fill="#0B5027"/>
  <path d="M45 85 L40 90 L40 80 Z" fill="#0B5027"/>
  <!-- Engine flames -->
  <ellipse cx="25" cy="95" rx="5" ry="15" fill="#FF6B35"/>
  <ellipse cx="35" cy="95" rx="5" ry="15" fill="#FF6B35"/>
  <ellipse cx="30" cy="105" rx="3" ry="10" fill="#FF4500"/>
  <ellipse cx="25" cy="100" rx="2" ry="8" fill="#FFD700"/>
  <ellipse cx="35" cy="100" rx="2" ry="8" fill="#FFD700"/>
  <!-- Window -->
  <circle cx="30" cy="25" r="8" fill="#87CEEB"/>
  <circle cx="30" cy="25" r="6" fill="#E6F3FF"/>
  <!-- Details -->
  <rect x="22" y="40" width="16" height="2" fill="#0B5027"/>
  <rect x="22" y="45" width="16" height="2" fill="#0B5027"/>
  <rect x="22" y="50" width="16" height="2" fill="#0B5027"/>
  <rect x="22" y="55" width="16" height="2" fill="#0B5027"/>
  <rect x="22" y="60" width="16" height="2" fill="#0B5027"/>
  <!-- Side thrusters -->
  <rect x="15" y="50" width="4" height="20" fill="#666" rx="1"/>
  <rect x="41" y="50" width="4" height="20" fill="#666" rx="1"/>
  <ellipse cx="17" cy="75" rx="2" ry="8" fill="#FF6B35"/>
  <ellipse cx="43" cy="75" rx="2" ry="8" fill="#FF6B35"/>
  <!-- Antenna -->
  <line x1="30" y1="10" x2="30" y2="5" stroke="#666" stroke-width="1"/>
  <circle cx="30" cy="5" r="1" fill="#FFD700"/>
  <!-- Solar panels -->
  <rect x="10" y="30" width="8" height="4" fill="#87CEEB" rx="1"/>
  <rect x="42" y="30" width="8" height="4" fill="#87CEEB" rx="1"/>
  <rect x="10" y="35" width="8" height="1" fill="#0B5027"/>
  <rect x="42" y="35" width="8" height="1" fill="#0B5027"/>
</svg>
