<svg xmlns="http://www.w3.org/2000/svg" width="60" height="100" viewBox="0 0 60 100" fill="none">
  <!-- Rocket body with base-inspired design -->
  <rect x="20" y="10" width="20" height="60" fill="#2D374B" rx="2"/>
  <!-- base-style hexagon pattern on body -->
  <rect x="22" y="15" width="16" height="8" fill="#4A90E2" rx="1"/>
  <rect x="22" y="25" width="16" height="8" fill="#4A90E2" rx="1"/>
  <rect x="22" y="35" width="16" height="8" fill="#4A90E2" rx="1"/>
  <rect x="22" y="45" width="16" height="8" fill="#4A90E2" rx="1"/>
  <!-- Rocket nose with base colors -->
  <path d="M30 5 L40 15 L20 15 Z" fill="#4A90E2"/>
  <!-- Rocket fins with base styling -->
  <path d="M15 65 L20 70 L20 60 Z" fill="#2D374B"/>
  <path d="M45 65 L40 70 L40 60 Z" fill="#2D374B"/>
  <!-- Engine flames with base blue -->
  <ellipse cx="25" cy="75" rx="4" ry="12" fill="#4A90E2"/>
  <ellipse cx="35" cy="75" rx="4" ry="12" fill="#4A90E2"/>
  <ellipse cx="30" cy="80" rx="2" ry="8" fill="#2D374B"/>
  <!-- Window with base logo -->
  <circle cx="30" cy="25" r="9" fill="#4A90E2"/>
  <circle cx="30" cy="25" r="7" fill="#E6F3FF"/>
  <!-- Actual base logo in window -->
  <rect x="26" y="22" width="2.5" height="6" fill="#FFFFFF"/>
  <rect x="29.5" y="22" width="2.5" height="6" fill="#FFFFFF"/>
  <rect x="33" y="22" width="2.5" height="6" fill="#4A90E2"/>
  <!-- Details with base styling -->
  <rect x="22" y="55" width="16" height="2" fill="#2D374B"/>
  <rect x="22" y="60" width="16" height="2" fill="#2D374B"/>
  <!-- Side thrusters with base colors -->
  <rect x="15" y="45" width="4" height="15" fill="#2D374B" rx="1"/>
  <rect x="41" y="45" width="4" height="15" fill="#2D374B" rx="1"/>
  <ellipse cx="17" cy="65" rx="2" ry="6" fill="#4A90E2"/>
  <ellipse cx="43" cy="65" rx="2" ry="6" fill="#4A90E2"/>
  <!-- base hexagon pattern on thrusters -->
  <rect x="15" y="50" width="4" height="2" fill="#4A90E2"/>
  <rect x="41" y="50" width="4" height="2" fill="#4A90E2"/>
</svg>