<svg xmlns="http://www.w3.org/2000/svg" width="80" height="120" viewBox="0 0 80 120" fill="none">
  <!-- Main rocket body with base hexagon design -->
  <rect x="30" y="20" width="20" height="70" fill="#2D374B" rx="3"/>
  
  <!-- Large base-style hexagon on rocket body -->
  <rect x="25" y="25" width="30" height="20" fill="#4A90E2" rx="2"/>
  <rect x="25" y="47" width="30" height="20" fill="#4A90E2" rx="2"/>
  <rect x="25" y="69" width="30" height="20" fill="#4A90E2" rx="2"/>
  
  <!-- base logo pattern (three bars) on each hexagon -->
  <rect x="32" y="30" width="2" height="10" fill="#FFFFFF"/>
  <rect x="36" y="30" width="2" height="10" fill="#FFFFFF"/>
  <rect x="40" y="30" width="2" height="10" fill="#4A90E2"/>
  
  <rect x="32" y="52" width="2" height="10" fill="#FFFFFF"/>
  <rect x="36" y="52" width="2" height="10" fill="#FFFFFF"/>
  <rect x="40" y="52" width="2" height="10" fill="#4A90E2"/>
  
  <rect x="32" y="74" width="2" height="10" fill="#FFFFFF"/>
  <rect x="36" y="74" width="2" height="10" fill="#FFFFFF"/>
  <rect x="40" y="74" width="2" height="10" fill="#4A90E2"/>
  
  <!-- Rocket nose with base blue -->
  <path d="M40 10 L50 20 L30 20 Z" fill="#4A90E2"/>
  
  <!-- Rocket fins -->
  <path d="M20 85 L30 95 L30 80 Z" fill="#2D374B"/>
  <path d="M60 85 L50 95 L50 80 Z" fill="#2D374B"/>
  
  <!-- Multiple engine flames with base colors -->
  <ellipse cx="35" cy="100" rx="4" ry="12" fill="#4A90E2"/>
  <ellipse cx="45" cy="100" rx="4" ry="12" fill="#4A90E2"/>
  <ellipse cx="40" cy="110" rx="3" ry="10" fill="#2D374B"/>
  <ellipse cx="35" cy="105" rx="2" ry="8" fill="#4A90E2"/>
  <ellipse cx="45" cy="105" rx="2" ry="8" fill="#4A90E2"/>
  
  <!-- Large cockpit window -->
  <circle cx="40" cy="35" r="10" fill="#4A90E2"/>
  <circle cx="40" cy="35" r="8" fill="#E6F3FF"/>
  
  <!-- base logo in cockpit -->
  <rect x="37" y="32" width="1.5" height="6" fill="#2D374B"/>
  <rect x="40" y="32" width="1.5" height="6" fill="#2D374B"/>
  <rect x="43" y="32" width="1.5" height="6" fill="#4A90E2"/>
  
  <!-- Side thrusters with base styling -->
  <rect x="15" y="60" width="6" height="25" fill="#2D374B" rx="2"/>
  <rect x="59" y="60" width="6" height="25" fill="#2D374B" rx="2"/>
  <ellipse cx="18" cy="85" rx="3" ry="10" fill="#4A90E2"/>
  <ellipse cx="62" cy="85" rx="3" ry="10" fill="#4A90E2"/>
  
  <!-- base hexagon patterns on thrusters -->
  <rect x="15" y="65" width="6" height="3" fill="#4A90E2"/>
  <rect x="15" y="70" width="6" height="3" fill="#4A90E2"/>
  <rect x="59" y="65" width="6" height="3" fill="#4A90E2"/>
  <rect x="59" y="70" width="6" height="3" fill="#4A90E2"/>
  
  <!-- Antenna with base blue -->
  <line x1="40" y1="20" x2="40" y2="10" stroke="#4A90E2" stroke-width="2"/>
  <circle cx="40" cy="10" r="2" fill="#4A90E2"/>
  
  <!-- Solar panels with base colors -->
  <rect x="5" y="40" width="12" height="6" fill="#4A90E2" rx="2"/>
  <rect x="63" y="40" width="12" height="6" fill="#4A90E2" rx="2"/>
  <rect x="5" y="47" width="12" height="2" fill="#2D374B"/>
  <rect x="63" y="47" width="12" height="2" fill="#2D374B"/>
  
  <!-- base logo pattern on solar panels -->
  <rect x="7" y="42" width="1.5" height="3" fill="#2D374B"/>
  <rect x="10" y="42" width="1.5" height="3" fill="#2D374B"/>
  <rect x="13" y="42" width="1.5" height="3" fill="#4A90E2"/>
  <rect x="65" y="42" width="1.5" height="3" fill="#2D374B"/>
  <rect x="68" y="42" width="1.5" height="3" fill="#2D374B"/>
  <rect x="71" y="42" width="1.5" height="3" fill="#4A90E2"/>
</svg>
