<svg xmlns="http://www.w3.org/2000/svg" width="60" height="100" viewBox="0 0 60 100" fill="none">
  <!-- Rocket body -->
  <rect x="20" y="10" width="20" height="60" fill="#34AC80" rx="2"/>
  <!-- Rocket nose -->
  <path d="M30 5 L40 15 L20 15 Z" fill="#4BEA69"/>
  <!-- Rocket fins -->
  <path d="M15 65 L20 70 L20 60 Z" fill="#0B5027"/>
  <path d="M45 65 L40 70 L40 60 Z" fill="#0B5027"/>
  <!-- Engine flames -->
  <ellipse cx="25" cy="75" rx="4" ry="12" fill="#FF6B35"/>
  <ellipse cx="35" cy="75" rx="4" ry="12" fill="#FF6B35"/>
  <ellipse cx="30" cy="80" rx="2" ry="8" fill="#FF4500"/>
  <!-- Window -->
  <circle cx="30" cy="25" r="7" fill="#87CEEB"/>
  <circle cx="30" cy="25" r="5" fill="#E6F3FF"/>
  <!-- Details -->
  <rect x="22" y="40" width="16" height="2" fill="#0B5027"/>
  <rect x="22" y="45" width="16" height="2" fill="#0B5027"/>
  <rect x="22" y="50" width="16" height="2" fill="#0B5027"/>
  <!-- Side thrusters -->
  <rect x="15" y="45" width="4" height="15" fill="#666" rx="1"/>
  <rect x="41" y="45" width="4" height="15" fill="#666" rx="1"/>
  <ellipse cx="17" cy="65" rx="2" ry="6" fill="#FF6B35"/>
  <ellipse cx="43" cy="65" rx="2" ry="6" fill="#FF6B35"/>
</svg>
